<svg xmlns="http://www.w3.org/2000/svg" width="160" height="220" viewBox="0 0 160 220">
  <g id="grounded-shadow">
    <ellipse cx="80" cy="207" rx="29" ry="7" fill="#080706" opacity="0.55"/>
  </g>

  <g id="human-survivor" stroke="#080706" stroke-linecap="round" stroke-linejoin="round">
    <!-- Head leaning back slightly (X=-4, Y=-2) -->
    <path d="M76 23c-12 0-21 10-21 23 0 15 9 25 21 25s21-10 21-25c0-13-9-23-21-23z" fill="#8a6a45" stroke-width="7"/>
    <path d="M60 45c5-11 21-18 34-4 1-15-8-26-21-26-12 0-23 10-23 24 0 5 1 10 4 14 1-3 3-6 6-8z" fill="#1a130f" stroke-width="5"/>
    <path d="M63 55c7 8 20 9 28 1" fill="none" stroke="#34251a" stroke-width="3" opacity="0.7"/>
    <path d="M68 48h3m14 0h3" fill="none" stroke="#080706" stroke-width="4"/>

    <!-- Neck and shoulders -->
    <path d="M68 69v12h16V69" fill="#8a6a45" stroke-width="5"/>
    <path d="M45 89c9-12 21-18 31-18s23 6 32 18" fill="#263326" stroke-width="8"/>

    <!-- Leaning back torso -->
    <path d="M54 88c7-8 37-8 44 0l10 55c-8 12-49 12-60 0z" fill="#34251a" stroke-width="7"/>
    <path d="M61 92c6-5 25-5 31 0l5 45c-7 6-30 6-38 0z" fill="#263326" stroke-width="4"/>
    <path d="M76 86l4 57" fill="none" stroke="#080706" stroke-width="4" opacity="0.9"/>
    <path d="M56 120c13 5 30 6 44 0" fill="none" stroke="#8a6a45" stroke-width="6"/>
    <path d="M59 118c11 4 25 5 38 1" fill="none" stroke="#d9c28e" stroke-width="2" opacity="0.45"/>

    <!-- Both arms pulling back — elbows bent, hands close to chest holding resource -->
    <path d="M50 94c-10 6-14 14-12 24" fill="none" stroke="#34251a" stroke-width="13"/>
    <path d="M38 118c-1 8 2 16 8 22" fill="none" stroke="#8a6a45" stroke-width="8"/>

    <path d="M102 94c10 6 14 14 12 24" fill="none" stroke="#34251a" stroke-width="13"/>
    <path d="M114 118c1 8-2 16-8 22" fill="none" stroke="#8a6a45" stroke-width="8"/>

    <!-- Small foliage resource visual in hands -->
    <circle cx="76" cy="125" r="8" fill="#3b4d2b" stroke="#080706" stroke-width="2"/>

    <!-- Belt and holster stub -->
    <path d="M55 143c15 6 34 7 50 0" fill="none" stroke="#080706" stroke-width="6"/>
    <path d="M101 145l15 13" fill="none" stroke="#34322d" stroke-width="5"/>
    <path d="M116 158l8 7" fill="none" stroke="#d9c28e" stroke-width="4"/>

    <!-- Hips and legs -->
    <path d="M59 149c10 7 31 8 42 0" fill="#1b1712" stroke-width="6"/>
    <path d="M66 152l-6 45" fill="none" stroke="#16110d" stroke-width="14"/>
    <path d="M94 152l6 45" fill="none" stroke="#16110d" stroke-width="14"/>
    
    <!-- Flat feet -->
    <path d="M53 197h22" stroke="#080706" stroke-width="8"/>
    <path d="M90 197h22" stroke="#080706" stroke-width="8"/>

    <!-- Highlights -->
    <path d="M61 97c-3 14-3 29 0 43" fill="none" stroke="#7b8156" stroke-width="3" opacity="0.6"/>
    <path d="M92 97c3 14 3 29 0 43" fill="none" stroke="#7b8156" stroke-width="3" opacity="0.5"/>
    <path d="M70 186c7 3 16 3 23 0" fill="none" stroke="#d9c28e" stroke-width="3" opacity="0.35"/>
  </g>
</svg>
